<svg version="1.1" xmlns="http://www.w3.org/2000/svg" viewBox="0 0 280.028 280.028" xml:space="preserve">
  <path d="M140.014 0c77.323 0 140.014 62.691 140.014 140.014 0 77.314-62.691 140.014-140.014 140.014S0 217.336 0 140.014 62.682 0 140.014 0z" fill="#ebebeb"/>
  <path d="M78.749 113.787h35.135V78.749c0-4.83 3.912-8.751 8.742-8.751h34.968c4.822 0 8.733 3.92 8.733 8.751v35.03h34.951a8.743 8.743 0 018.751 8.751v35.012c0 4.848-3.912 8.768-8.751 8.768h-34.951v34.933c0 4.839-3.912 8.751-8.733 8.751h-34.968c-4.83 0-8.742-3.912-8.742-8.751V166.31H78.749c-4.839 0-8.76-3.92-8.76-8.768V122.53c0-4.831 3.921-8.743 8.76-8.743z" fill="#e2574c"/>
</svg>
